<?xml version="1.0" standalone="no"?>
<!DOCTYPE svg PUBLIC "-//W3C//DTD SVG 20010904//EN"
 "http://www.w3.org/TR/2001/REC-SVG-20010904/DTD/svg10.dtd">
<svg version="1.0" xmlns="http://www.w3.org/2000/svg"
 width="433.000000pt" height="432.000000pt" viewBox="0 0 433.000000 432.000000"
 preserveAspectRatio="xMidYMid meet">
<metadata>
Created by potrace 1.16, written by Peter Selinger 2001-2019
</metadata>
<g transform="translate(0.000000,432.000000) scale(0.100000,-0.100000)"
fill="#000000" stroke="none">
<path d="M1965 3924 c-270 -27 -592 -143 -837 -301 -192 -124 -408 -343 -541
-548 -95 -148 -181 -338 -227 -505 -7 -25 -16 -56 -20 -70 -9 -25 -30 -159
-50 -305 -17 -135 -14 -198 26 -460 17 -109 18 -113 65 -260 52 -167 122 -311
222 -462 73 -108 88 -129 162 -212 182 -204 411 -370 660 -476 22 -9 49 -21
60 -26 19 -8 145 -49 210 -68 32 -10 164 -33 282 -51 92 -13 284 -13 376 0 92
14 190 29 247 40 41 8 207 59 255 79 156 65 299 144 422 232 101 73 270 232
352 334 273 335 421 752 421 1187 0 112 -21 315 -41 393 -6 22 -15 58 -21 80
-79 307 -238 591 -463 823 -170 176 -322 290 -515 384 -186 91 -273 119 -540
178 -54 12 -425 22 -505 14z m240 -673 c0 -105 -3 -125 -17 -134 -12 -8 -21
-7 -32 2 -13 11 -16 35 -16 121 0 129 4 142 39 138 l26 -3 0 -124z m-654 -412
c80 -81 90 -102 57 -123 -15 -9 -31 2 -103 74 -78 78 -96 106 -78 123 19 19
52 0 124 -74z m1377 56 c3 -24 -160 -189 -180 -183 -34 11 -17 47 60 128 80
84 114 99 120 55z m-617 -10 c107 -23 221 -86 304 -170 129 -130 185 -266 185
-444 -1 -117 -17 -190 -66 -290 -31 -64 -56 -95 -154 -191 -179 -176 -200
-227 -200 -479 0 -131 -3 -157 -19 -190 -23 -44 -82 -99 -114 -105 -102 -21
-148 -12 -204 37 -64 56 -75 97 -74 270 0 83 -5 171 -11 196 -21 90 -67 158
-166 249 -170 157 -231 276 -239 472 -7 172 25 279 128 414 146 194 387 282
630 231z m-928 -707 c8 -12 7 -21 -2 -32 -11 -13 -36 -16 -132 -16 -112 0
-118 1 -125 22 -12 39 18 49 140 46 89 -2 111 -6 119 -20z m235 -570 c22 -22
12 -40 -65 -120 -62 -63 -82 -78 -103 -76 -50 6 -36 38 53 126 47 45 89 82 94
82 5 0 14 -5 21 -12z"/>
<path d="M2241 2621 c-17 -21 -46 -65 -64 -97 -48 -85 -142 -209 -177 -234
-39 -28 -43 -76 -6 -86 13 -3 33 -1 44 5 12 6 46 11 76 11 52 0 56 -2 56 -24
0 -13 -16 -46 -35 -72 -118 -166 -127 -182 -120 -203 3 -11 18 -24 32 -27 22
-6 31 -1 57 32 17 21 44 53 60 69 16 17 61 73 99 125 39 52 83 107 99 122 30
28 34 48 18 78 -9 16 -20 18 -112 13 -57 -2 -98 -1 -93 4 14 11 138 180 164
223 26 43 26 55 1 80 -32 32 -64 25 -99 -19z"/>
</g>
</svg>
